<svg xmlns="http://www.w3.org/2000/svg" version="1.1" viewBox="0 0 680 489.33"><defs><style>.cls-1{fill:#6466ad;}</style></defs><g id="Layer_2" data-name="Layer 2"><g id="_1" data-name="1"><path class="cls-1" d="M180.93,489.33h-.27c-66.93-2.13-112.13-26.12-138.27-46C13.86,421.73,1.46,400.66.93,399.74A7.45,7.45,0,0,1,0,396.4c0-95.06,22.52-180.53,41.46-235.6C62,101.2,82.27,64.53,83.06,62.94a5.62,5.62,0,0,1,1.87-2.14C164.39,1.73,239.86.13,248.27.13h.79A6.5,6.5,0,0,1,254,2.53l5.75,6.8a6.68,6.68,0,0,1,1.19,6.28A6.5,6.5,0,0,1,256.4,20a487.63,487.63,0,0,0-80.27,30.27A509.28,509.28,0,0,1,337.59,24,491.19,491.19,0,0,1,486.4,46.8a486.55,486.55,0,0,0-65.2-24.53,7,7,0,0,1-4.54-4.53A6.68,6.68,0,0,1,418,11.47l8-9.2A6.41,6.41,0,0,1,430.92,0h.81c8.39,0,84.4,1.73,163.33,60.8a7.11,7.11,0,0,1,1.86,2.14c.81,1.46,21.08,38.13,41.62,97.86C657.46,215.87,680,301.34,680,396.4h0a6.46,6.46,0,0,1-1.48,4.13l-.13.13c-6.27,9.34-20.4,27.73-45.59,45.61-37.21,26.53-82.14,40.8-133.61,42.4a6.91,6.91,0,0,1-5.33-2.4c-.27-.27-20.8-24.8-37.73-45.73a6.65,6.65,0,0,1-1.2-6.27,6.78,6.78,0,0,1,4.53-4.4,208.74,208.74,0,0,0,65.07-30.8c-55.6,26.54-120.14,41.2-183.47,41.2a362.82,362.82,0,0,1-74.27-7.33C225.33,424.8,189.73,413.2,156,396.8a202.37,202.37,0,0,0,64.93,32.27,6.6,6.6,0,0,1,4.4,4.4,6.79,6.79,0,0,1-1.06,6.14c-17.08,21.6-38.15,46.78-38.41,47.05A5.67,5.67,0,0,1,180.93,489.33ZM13.33,394.4c3.19,4.94,15.2,21.74,37.73,38.67,24.14,18.13,65.6,40.14,126.93,42.8,4.95-5.86,17.87-21.33,30-36.66-67.21-23.07-93.34-64.94-94.41-66.8a6.7,6.7,0,0,1,1.07-8.28,6.85,6.85,0,0,1,8.27-.93c44.93,28.13,90.26,45.61,146.8,56.81a356.6,356.6,0,0,0,71.6,7.06c78.26,0,158.39-23.2,220-63.73a6.62,6.62,0,0,1,8.26.79,6.69,6.69,0,0,1,1.08,8.28c-1.21,1.86-28.28,44.79-97.61,67.33,12,14.8,24.4,29.59,29.33,35.46,105.6-4.53,154.14-65.86,164.54-80.93-.53-168.93-73.07-309.2-80.81-323.6-65-48.13-127.19-55.86-147.73-57.07,88.53,28.94,130,67.73,131.73,69.47a6.71,6.71,0,0,1,.81,8.8,6.52,6.52,0,0,1-8.54,1.87C495.45,56.93,417.85,37.33,337.86,37.33A494.53,494.53,0,0,0,108.27,93.74a6.7,6.7,0,0,1-8.54-2,6.52,6.52,0,0,1,.79-8.66c1.75-1.74,41.48-39.2,127.06-68-27.86,3.73-79.32,15.86-133.32,55.6-3.74,6.93-22,42.13-40.13,94.79C35.59,218.94,13.6,302.13,13.33,394.4Zm664.93,6.53a3.48,3.48,0,0,1-1.6,1.21ZM442,349.86c-35.88,0-64.95-31.19-64.95-69.46v-.26c1.47-47.34,34.68-68.94,64.82-68.94s63.32,21.6,65.06,68.94v.26a72.25,72.25,0,0,1-18.67,49.06A62.55,62.55,0,0,1,442,349.86Zm-51.61-69.32c0,30.92,23.2,56.12,51.61,56.12,28.93,0,51.59-24.66,51.59-56-1.47-38.4-27.73-55.88-51.72-55.88C417.85,224.53,391.59,242,390.39,280.54ZM233.46,349.86c-35.86,0-64.94-31.19-64.94-69.46v-.13c1.35-47.33,34.68-68.93,65.07-68.93a63.61,63.61,0,0,1,44.13,17.47c13.07,12.52,20.27,30.4,20.69,51.46v.13a72.26,72.26,0,0,1-18.68,49.06A62.55,62.55,0,0,1,233.46,349.86Zm-51.6-69.46c0,30.94,23.2,56.13,51.6,56.13,28.93,0,51.61-24.67,51.61-56.13-.81-38.39-27.2-55.87-51.48-55.87C209.46,224.53,182.94,242,181.86,280.4Z"/></g></g></svg>