<svg xmlns="http://www.w3.org/2000/svg" version="1.1" viewBox="0 0 682.8 514.93"><defs><style>.cls-1{fill:#f84437;}</style></defs><g id="Layer_2" data-name="Layer 2"><g id="_1" data-name="1"><path class="cls-1" d="M613.2,0H69.47A69.48,69.48,0,0,0,0,69.33V445.6a69.48,69.48,0,0,0,69.47,69.33H613.34A69.48,69.48,0,0,0,682.8,445.6V69.33A69.68,69.68,0,0,0,613.2,0ZM96.94,20.4,337.2,210a6.8,6.8,0,0,0,8.27,0L585.59,20.4v93.46L341.34,301.72,96.94,114Zm12.65-7.06H573.2L341.34,196.26ZM13.33,445.6V69.33a56.1,56.1,0,0,1,56.14-56H83.73V501.72H69.47A56.29,56.29,0,0,1,13.33,445.6ZM96.94,130.79,337.33,315.45a6.58,6.58,0,0,0,8.14,0L585.59,130.79v370.8H96.94V130.79ZM669.33,445.6a56.1,56.1,0,0,1-56.13,56H598.93V13.34H613.2a56.18,56.18,0,0,1,56.13,56Z"/></g></g></svg>