<svg xmlns="http://www.w3.org/2000/svg" viewBox="0 0 682.8 668.14"><defs><style>.cls-1{fill:#6879d9;}</style></defs><g id="Layer_2" data-name="Layer 2"><g id="_1" data-name="1"><path class="cls-1" d="M582.68,100.27A338.33,338.33,0,0,0,341.33,0C250.14,0,164.53,35.59,100,100.27A342.68,342.68,0,0,0,233.47,667.2a8.8,8.8,0,0,0,.93.26,42.49,42.49,0,0,0,6.94.68c16.4,0,23.73-12.14,23.73-23.34,0-3.73,0-10.4-.13-19.47-.14-10-.27-22.93-.27-37.73a6.8,6.8,0,0,0-2.53-5.21,7,7,0,0,0-5.6-1.32,150.3,150.3,0,0,1-32.27,3.73c-58.27,0-72.13-42.4-72.66-44.14,0-.13-.14-.39-.14-.53-14.8-37.73-36.13-50.4-40-52.4-4.92-3.34-7.33-5.73-8.54-7.2a33.8,33.8,0,0,1,7.2-.8c29.34,2.27,45.48,30.8,45.61,31.2a.13.13,0,0,0,.13.13c15.2,26.14,37.73,40,64.93,40,16.67,0,31.6-5.06,41.07-9.33a6.51,6.51,0,0,0,3.87-5.19c3.33-23.87,13.33-35.88,19.06-40.81a6.69,6.69,0,0,0,2-7.06,6.58,6.58,0,0,0-5.59-4.68c-68.27-7.73-146.53-32.92-146.53-159.32,0-32.94,11.06-61.88,32.66-85.61a6.53,6.53,0,0,0,1.2-7.06c-3.47-8.4-13.2-38.67,2-80.26.66,0,1.6-.13,2.66-.13,11.47,0,37.2,4.39,80.81,34a6.86,6.86,0,0,0,5.59.93,309.28,309.28,0,0,1,164,0,7,7,0,0,0,5.59-.93c43.6-29.61,69.34-34,80.8-34a14.18,14.18,0,0,1,2.54.13c15.21,41.46,5.46,71.86,2,80.39a6.57,6.57,0,0,0,1.2,6.93c21.6,23.73,32.67,52.54,32.67,85.61,0,126.4-78.54,151.46-146.81,159.06A6.58,6.58,0,0,0,396,488.4a6.72,6.72,0,0,0,2,7.07c6.14,5.33,20.4,21.46,20.4,57.07,0,30-.13,56.12-.26,73.46,0,8.54-.14,15.07-.14,18.67,0,11.33,7.33,23.47,23.61,23.47h0a35.64,35.64,0,0,0,7.32-.81,1.81,1.81,0,0,0,.8-.27,338.88,338.88,0,0,0,167.34-122.8c43.06-58.93,65.73-128.8,65.73-202.12A341,341,0,0,0,582.68,100.27ZM445.75,654.54a26.81,26.81,0,0,1-4.41.4c-8.93,0-10.27-6.27-10.27-10.14,0-3.6,0-10,.13-18.54.14-17.33.27-43.45.27-73.45,0-22.81-5.72-42.94-15.87-57.21,29.2-4.13,66.27-13.2,95.2-37.46,33.73-28.28,50.81-73.08,50.81-133.2,0-35.08-11.21-65.88-33.47-91.6,4.66-13.6,12.13-46.94-4.8-89.88a6.28,6.28,0,0,0-4.13-3.86,35.47,35.47,0,0,0-9.48-1.06c-12.8,0-40.66,4.52-85.73,34.66a332.11,332.11,0,0,0-82.67-10.8,327.06,327.06,0,0,0-82.53,10.67c-45.06-30.14-72.92-34.67-85.73-34.67a35.72,35.72,0,0,0-9.46,1.06,6.63,6.63,0,0,0-4.14,3.87c-16.93,43.07-9.34,76.28-4.66,89.88-22.27,25.72-33.47,56.52-33.47,91.6,0,59.85,17.07,104.65,50.66,133.06,23.08,19.46,53.46,31.6,95.07,37.73-6.8,9.47-11.59,21.46-13.86,35.2-7.48,3.07-19.34,6.8-32.27,6.8-22.54,0-40.4-11.2-53.33-33.34-1.34-2.39-20.4-35.33-56.54-38h-.66c-6.8,0-18.67,1.35-21.34,9.87-2.8,8.94,6.8,16.8,15.34,22.67a4.88,4.88,0,0,0,.93.53c.13.14,19.87,10.14,33.73,45.33.66,2.14,5.06,14.54,16.94,26.81C167.61,583.6,188.94,598,224.4,598a149.84,149.84,0,0,0,27.07-2.54c.13,11.48.13,21.61.26,29.74.14,9.07.14,15.59.14,19.34,0,3.07-1.07,10-10.4,10a22.77,22.77,0,0,1-4.13-.41c-134-44.54-224-169.87-224-311.73,0-181.47,147-329.07,328-329.07s328,147.6,328,329.07C669.34,484.13,579.46,609.46,445.75,654.54Z"/></g></g></svg>