<svg xmlns="http://www.w3.org/2000/svg" viewBox="0 0 682.66 682.4"><defs><style>.cls-1{fill:#1b80e4;}</style></defs><g id="Layer_2" data-name="Layer 2"><g id="_1" data-name="1"><path class="cls-1" d="M156.4,209.06H6.67A6.59,6.59,0,0,0,0,215.72V675.6a6.6,6.6,0,0,0,6.67,6.67H156.4a6.61,6.61,0,0,0,6.67-6.67V215.72A6.78,6.78,0,0,0,156.4,209.06Zm-6.67,459.87H13.33V222.39h136.4Z"/><path class="cls-1" d="M565.86,214.8c-1.64-.63-3.43-1.1-5.07-1.73-74.93-20.93-161.67,35-188.53,71.73V215.72a6.6,6.6,0,0,0-6.67-6.66H215.86a6.6,6.6,0,0,0-6.67,6.66V675.6a6.61,6.61,0,0,0,6.67,6.67H365.59a6.61,6.61,0,0,0,6.67-6.67V427.07c15.86-23.92,113.93-136.34,147.59-42.67V675.73a6.62,6.62,0,0,0,6.67,6.67H676a6.61,6.61,0,0,0,6.67-6.67V365.32C682.66,294.67,634.66,232.79,565.86,214.8ZM669.32,668.93H533.06v-286c-10.54-31.38-31.91-49.44-55.86-49.08-54,0-114.54,83.47-117.06,86.94-3.67,4,.09,243.5-1.22,248H222.53V222.39H358.92v81.2c-.13,6.32,8.44,9.05,12,3.87,17.36-31.93,111.93-107.75,191.61-80.13,62.8,16.67,106.79,73.33,106.79,138Z"/><path class="cls-1" d="M79.86,159.73C184.79,157.8,184.8,1.91,79.86,0-25.11,1.92-25,157.91,79.86,159.73Zm0-146.27c87.45,1.6,87.42,131.49,0,133.07C-7.44,144.7-7.67,15.14,79.86,13.46Z"/></g></g></svg>