<svg xmlns="http://www.w3.org/2000/svg" version="1.1" viewBox="0 0 669.19 679.86"><defs><style>.cls-1{fill:#603a87;}</style></defs><g id="Layer_2" data-name="Layer 2"><g id="_1" data-name="1"><path class="cls-1" d="M637.86,354.94h-.81c-23.32-.4-23.72-21.61-24-34.27a76.6,76.6,0,0,0-.53-10c-20.4-161.21-94-236.94-253.88-261.61-2.38-.39-5.18-.53-8.12-.79-11.86-.94-31.86-2.28-30.66-23.21C320.78,8.4,329.85,0,346.79,0a80,80,0,0,1,8.13.4,46.53,46.53,0,0,0,8.54.14,3.4,3.4,0,0,1,1.19,0C440.93,3.06,517.18,38.81,573.86,98.4c56.39,59.34,88.26,136.94,87.33,212.8,0,2.28.13,4.93.27,7.6.53,10.4,1.06,22.27-6.27,29.87C651.18,352.67,645.33,354.94,637.86,354.94ZM346.92,13.2c-8.67,0-12.94,1.87-13.6,12.54-.4,6,2,8,18.26,9.2,3.07.27,6.27.4,9.2.93,85.07,13.07,144.55,39.6,186.94,83.33s67.33,104,78.13,189.73a108.35,108.35,0,0,1,.54,11.48c.26,16.52,1.6,21.06,10.93,21.2h.54c5.46,0,7.07-1.75,7.73-2.28,3.33-3.46,2.94-12.26,2.67-20.13-.13-2.8-.27-5.59-.27-8.4C649.85,157.88,517.58,19.07,364.78,13.6a35.61,35.61,0,0,1-3.86.13c-2.28,0-4.53-.13-6.93-.27S349.19,13.2,346.92,13.2Z"/><path class="cls-1" d="M531.18,679.86h-.92a8.14,8.14,0,0,1-1.75-.26c-1.73-.53-4.13-1.06-6.93-1.6-7.73-1.73-18.12-4-28-8.27-113.19-48.8-210.79-113.59-290.25-192.66C122.26,396.14,57.85,298.13,12.13,185.73-3.35,147.88-4,111.47,10.12,80.67c14.66-32,44.14-56.13,85.34-70a72.27,72.27,0,0,1,23.2-4,64,64,0,0,1,22.66,4.15c19.73,7.2,51.34,43.59,74.53,75.33,23.07,31.47,48,72.66,49.21,93.33v.13c.79,30.4-18.14,44.66-34.8,57.34-21.48,16.26-40.14,30.26-19.87,78.13C240.66,383.2,293.73,434.8,368,468.54c9.6,4.41,18.55,6.66,26.54,6.66,14,0,25.19-6.8,34.4-20.66,17.47-26.81,38.53-40.4,62.67-40.4,34.14,0,68.93,26.93,99.86,50.66,8.55,6.54,16.54,12.81,24.4,18.26.14.14.27.14.4.29,3.34,2.65,6.8,5.32,10.14,7.86,25.47,19.45,54.26,41.46,38.12,87.18-8.79,24.81-28.12,50.15-53.06,69.75C585.19,668.54,556.66,679.86,531.18,679.86ZM118.79,20a58.86,58.86,0,0,0-19.07,3.34C62.12,36,35.32,57.73,22.26,86.27c-12.53,27.47-11.74,60.12,2.26,94.53C113.85,400,273.46,560.4,499.06,657.47c8.66,3.73,18.52,6,25.6,7.6,2.52.53,4.8,1.07,6.66,1.61,22.14,0,48.41-10.55,71.86-29.08,22.94-18,40.8-41.19,48.68-63.73,12.92-36.54-8.67-53.06-33.6-72.13-3.34-2.54-6.94-5.21-10.27-8-8-5.6-16.14-11.87-24.67-18.41-29.06-22.39-62.14-47.87-91.73-47.87-19.6,0-36.53,11.2-51.61,34.41-11.72,17.73-27.06,26.67-45.59,26.67-9.87,0-20.67-2.67-32-7.73-77.33-35.08-132.54-88.93-164.26-160.27-24.28-57.59,1.33-76.94,24.12-94.13,16.14-12.15,30.14-22.68,29.47-46.14-.8-14.53-19.6-49.06-46.66-86.14s-54.67-65.59-68.28-70.67A47.77,47.77,0,0,0,118.79,20Z"/><path class="cls-1" d="M555.85,323.74h0c-21.2,0-22.39-19.34-23.06-30.79a76.5,76.5,0,0,0-.8-8.68c-16.13-97.47-49.2-132-147.47-154-2.52-.53-5.47-.94-8.53-1.34-9.87-1.32-21.19-2.93-27.2-11.2-3.61-4.79-4.67-11.19-3.47-18.93,1.6-9.46,7.21-20.8,24.94-20.8,5.2,0,10.39,1,15.59,1.74,2.54.4,4.8.8,7.06,1.06C497.6,93.34,582,184.14,581.19,283.07v.8a79.82,79.82,0,0,0-.14,8.26c.4,10.53.93,28-18.8,31.07A37.6,37.6,0,0,1,555.85,323.74ZM370.12,91.33c-7.59,0-10.53,2.4-11.74,9.74-.66,4-.26,6.93,1.08,8.81,2.8,3.73,11.06,4.92,18.39,5.85,3.2.41,6.54.94,9.6,1.61,103.74,23.2,140.67,61.73,157.74,164.79a81.73,81.73,0,0,1,.94,10.14c.93,15.2,2.52,18.27,9.72,18.27h0a24.84,24.84,0,0,0,4.14-.4c7.07-1.07,7.86-4.67,7.47-17.34a63.24,63.24,0,0,1,.13-10.13c.53-92.27-78.53-176.79-176.54-188.54-2.53-.26-5.07-.79-7.59-1.19A81.42,81.42,0,0,0,370.12,91.33Z"/><path class="cls-1" d="M480,299.07h0c-12.39,0-22.13-10.27-23.74-25.07-3.86-38.66-24-60.4-61.73-66.4-8.94-1.46-18.53-4-23.33-11.86-3.21-5.34-3.34-11.87-.67-19.61,5.61-16.53,22-16.93,30.8-17.06,23.07-.53,48.53,11.61,69.74,33.2s33.74,48.53,33.47,72.27c.27,8.8,1.07,31.74-21.74,34.53A18.69,18.69,0,0,0,480,299.07ZM402.8,172.27h-1.21c-12.13.27-16.54,2.14-18.53,8.13-.94,2.67-1.74,6.27-.4,8.4,2,3.2,8.93,4.67,14,5.61,43.85,7.07,68.4,33.32,72.93,78.26.66,6.53,4.13,13.06,10.4,13.06h0a3.72,3.72,0,0,0,1.19-.13c6.8-.8,10.68-4.53,10-20.93v-.4c.27-20.13-10.8-43.61-29.6-62.79C443.59,183.2,421.59,172.27,402.8,172.27Z"/></g></g></svg>