<svg xmlns="http://www.w3.org/2000/svg" viewBox="0 0 556.22 682.74"><defs><style>.cls-1{fill:#ffc107;}</style></defs><g id="Layer_2" data-name="Layer 2"><g id="_1" data-name="1"><path class="cls-1" d="M107.46,597.81H371.33a6.61,6.61,0,0,0,6.67-6.67V534.87a6.61,6.61,0,0,0-6.67-6.67H107.46a6.6,6.6,0,0,0-6.65,6.67v56.27A6.6,6.6,0,0,0,107.46,597.81Zm6.67-56.27H364.66v42.94H114.13Z"/><path class="cls-1" d="M556.14,265.41,511.06,5.55A6.85,6.85,0,0,0,503.33.07l-55.46,9.6a6.56,6.56,0,0,0-4.26,2.68,6.28,6.28,0,0,0-1.08,4.93l44.13,253.86L340.8,57.94a6.54,6.54,0,0,0-9.19-1.74L285.07,87.94a6.23,6.23,0,0,0-2.8,4.27,6.39,6.39,0,0,0,1.06,4.93l146.81,215.2L204.4,179.28a6.58,6.58,0,0,0-9.07,2.39l-28.66,48.54a6.16,6.16,0,0,0-.67,5.07,6.81,6.81,0,0,0,3.07,4.12l227.33,134a6.39,6.39,0,0,0,3.34.93,6.56,6.56,0,0,0,5.72-3.33l28.68-48.54a6.14,6.14,0,0,0,.66-5.06,6.35,6.35,0,0,0,2.8.66,6.53,6.53,0,0,0,3.73-1.2l46.53-31.73a6,6,0,0,0,2.54-3.46,6.23,6.23,0,0,0,3.73,1.19,3.91,3.91,0,0,0,1.21-.13l55.46-9.6a6.58,6.58,0,0,0,4.26-2.66A7.44,7.44,0,0,0,556.14,265.41ZM397.33,358.47,181.46,231.27l21.88-37.06L419.2,321.4Zm41.87-56.39L298,95.14l35.6-24.26L474.8,277.81Zm60.27-33.6L456.67,21.8l42.4-7.33,42.79,246.67Z"/><path class="cls-1" d="M109.06,495.54l262.8,24.13h.66a6.65,6.65,0,0,0,6.67-6l5.21-56a7.49,7.49,0,0,0-1.46-4.94,6.68,6.68,0,0,0-4.54-2.4L115.6,426.07a6.6,6.6,0,0,0-7.2,6l-5.19,56.14a7.43,7.43,0,0,0,1.46,4.93A6.88,6.88,0,0,0,109.06,495.54Zm11.87-55.6L370.4,462.87l-4,42.81L116.94,482.74Z"/><path class="cls-1" d="M123.74,375.8l254.79,68.41a8.07,8.07,0,0,0,1.74.27,6.69,6.69,0,0,0,6.4-4.94l14.66-54.4a6.74,6.74,0,0,0-.66-5.06,6.47,6.47,0,0,0-4-3.07l-254.8-68.4a6.66,6.66,0,0,0-8.14,4.66l-14.66,54.4a6.8,6.8,0,0,0,.66,5.08A6.93,6.93,0,0,0,123.74,375.8Zm21.07-52.66,242,64.93-11.19,41.46-242-64.93Z"/><path class="cls-1" d="M484,418.87H436.26a6.59,6.59,0,0,0-6.65,6.67v202H61.07v-202a6.61,6.61,0,0,0-6.67-6.67H6.67A6.61,6.61,0,0,0,0,425.54V676.08a6.6,6.6,0,0,0,6.67,6.66H484a6.59,6.59,0,0,0,6.65-6.66V425.54A6.68,6.68,0,0,0,484,418.87Zm-6.67,250.54h-464V432.21h34.4v202a6.61,6.61,0,0,0,6.67,6.67H436.26a6.61,6.61,0,0,0,6.67-6.67v-202h34.41v237.2Z"/></g></g></svg>