<svg xmlns="http://www.w3.org/2000/svg" version="1.1" viewBox="0 0 680.01 564.27"><defs><style>.cls-1{fill:#1e91cf;}</style></defs><g id="Layer_2" data-name="Layer 2"><g id="_1" data-name="1"><path class="cls-1" d="M558.89,564.27h0c-28.66,0-61.73-20.4-78.92-32.52l-.14-.14c-1.33-.94-8.79-5.86-18.41-12.14-38.66-25.19-119-77.73-154-107.33-10.67-9.06-16.54-20.12-16.54-31.21,0-11.59,6-22.78,18.15-33.45,60.26-55.21,133.72-125.2,178.65-170.13,10.14-10.14,16-22.4,16.14-26.54h-.4c-3.73,0-16.4,2.53-51.6,26.54L211.43,339.21l-.13.13c-.53.39-14.93,9.07-41.33,9.07a150.18,150.18,0,0,1-42.54-6.66C76.77,326.54,17,306.14,16.37,305.87a4.09,4.09,0,0,1-1.34-.66c-.67-.4-16.41-10.4-14.93-26.27,1.33-14.53,16.14-27.07,45.06-38.4C112.5,213.07,301.7,134.81,607.3,8.28l6.94-2.94h.13A85.69,85.69,0,0,1,642.5,0c12.27,0,21.73,3.6,28.26,10.67,7.33,8,10.27,19.87,8.94,35.47-1.21,17.47-8.67,65.33-18,126-3.62,23.2-7.35,47.2-11.08,72.14L608,511.88C602,555.21,578,564.27,558.89,564.27Zm-71.2-43.46c12.81,9.06,45.35,30.13,71.2,30.13,20.41,0,32.15-13.32,35.88-40.94l42.66-267.72c3.74-24.94,7.46-48.94,11.07-72.15,8.93-58,16.66-108,17.87-124.92,1.06-11.87-.81-20.39-5.48-25.47q-5.79-6.39-18.39-6.4a72.78,72.78,0,0,0-23.34,4.41l-6.93,2.79C306.63,147.21,117.44,225.35,50,253c-30.81,12-36.27,22.26-36.67,27.19-.68,6.54,6.25,12,8.26,13.34C29,296,84.1,314.81,131.3,328.94c13.61,4,26.53,6.13,38.67,6.13,21.33,0,33.19-6.53,34.26-7.06L444.37,166.14c28.53-19.47,47.87-28.79,59.06-28.79,8.53,0,11.6,5.19,12.66,7.46,4.94,11.73-9.06,31.86-18.93,41.73C452,231.75,378.36,301.87,318,357.2l-.13.13c-9.06,7.88-13.6,15.88-13.6,23.34,0,9.6,7.46,17.33,11.87,21.08,34.27,29.05,117.2,83.19,152.67,106.39C480.63,516,486.1,519.61,487.69,520.81Z"/></g></g></svg>